<svg viewBox="0.0,0.0 123.6,117.1" xmlns="http://www.w3.org/2000/svg">
  <path d="
    M 52.0,10.9
    H 1.6
    L 0.0,7.2
    h 50.8
    l 5.4,-7.2
    c 6.4,5.2,9.7,8.5,9.7,9.9
    c 0.0,0.8,-0.5,1.5,-1.4,2.1
    l -3.5,2.4
    v 87.6
    c 0.0,3.4,1.2,5.3,3.7,5.7
    c 3.7,0.8,8.4,1.2,14.1,1.2
    c 8.8,0.0,20.5,-0.6,35.1,-1.9
    c 0.6,0.0,1.4,-0.1,2.2,-0.2
    c 0.5,0.0,0.8,-0.1,1.0,-0.1
    c 2.0,0.0,3.5,0.6,4.8,1.9
    c 1.1,1.2,1.7,2.7,1.7,4.5
    c 0.0,1.3,-0.8,2.2,-2.5,2.7
    c -1.1,0.3,-3.1,0.6,-6.1,0.7
    c -4.9,0.4,-14.5,0.6,-28.6,0.6
    c -16.0,0.0,-25.5,-0.7,-28.6,-2.0
    c -3.8,-1.5,-5.7,-5.5,-5.7,-12.1
    V 10.9
    Z"
  />
</svg>