<svg viewBox="0.0,0.0 75.5,120.6" xmlns="http://www.w3.org/2000/svg">
  <path d="
    M 28.3,50.0
    c 9.1,-10.8,18.7,-23.9,28.6,-39.4
    H 1.6
    l -1.6,-3.7
    h 57.1
    l 6.1,-6.9
    c 7.5,6.0,11.3,10.0,11.3,11.9
    c 0.0,0.9,-0.5,1.4,-1.6,1.5
    L 67.3,14.6
    c -10.4,12.9,-20.7,24.1,-30.8,33.4
    c 26.0,8.8,39.0,20.9,39.0,36.3
    c 0.0,11.7,-4.7,20.9,-14.2,27.7
    c -9.6,6.0,-24.6,8.6,-45.0,7.7
    v -4.1
    c 20.1,0.0,34.1,-3.1,42.1,-9.3
    c 5.4,-5.1,8.1,-11.6,8.1,-19.6
    c 0.0,-8.8,-4.0,-16.3,-11.9,-22.6
    c -3.5,-2.8,-8.2,-5.6,-14.1,-8.4
    C 36.9,53.9,32.8,52.0,28.3,50.0
    Z"
  />
</svg>