<svg viewBox="0.0,0.0 111.4,128.0" xmlns="http://www.w3.org/2000/svg">
  <path d="
    M 20.9,128.0
    l -1.7,-3.4
    c 20.9,-6.3,39.5,-17.7,55.5,-34.1
    c 10.9,-12.3,18.4,-24.8,22.3,-37.6
    h -38.2
    l -4.6,8.6
    l -8.7,-2.4
    c 10.0,-17.8,17.7,-33.8,23.2,-47.9
    H 1.4
    l -1.4,-3.7
    h 67.8
    l 6.0,-7.5
    c 6.2,5.5,9.2,8.9,9.2,10.3
    c 0.0,0.6,-0.5,1.2,-1.4,1.6
    l -4.0,2.0
    c -5.0,10.5,-10.6,22.3,-16.6,35.3
    h 35.0
    l 6.2,-7.6
    c 6.1,5.5,9.2,9.0,9.2,10.5
    c 0.0,0.6,-0.5,1.2,-1.5,1.8
    l -3.6,2.1
    c -5.5,15.2,-13.9,28.6,-25.3,40.4
    C 65.2,111.9,45.2,122.5,20.9,128.0
    Z"
  />
</svg>