<svg viewBox="0.0,0.0 107.2,130.3" xmlns="http://www.w3.org/2000/svg">
  <path d="
    M 92.1,57.2
    l 5.8,-7.2
    c 6.2,5.0,9.3,8.2,9.3,9.7
    c 0.0,0.7,-0.4,1.3,-1.3,1.8
    l -4.0,2.3
    c -0.6,22.4,-3.3,39.9,-8.0,52.7
    c -2.3,5.3,-5.4,9.0,-9.2,11.1
    c -3.3,1.8,-7.5,2.7,-12.7,2.7
    c -0.1,-3.0,-2.3,-5.4,-6.4,-7.0
    c -3.3,-1.3,-9.6,-2.9,-18.9,-4.8
    v -4.2
    c 11.4,2.2,21.1,3.3,29.1,3.3
    c 5.6,0.0,9.5,-3.4,11.6,-10.2
    c 3.6,-11.5,5.6,-27.0,6.0,-46.4
    h -80.0
    l -5.4,14.3
    L 0.0,73.0
    c 1.8,-4.7,3.6,-9.6,5.4,-14.7
    C 14.1,34.6,20.6,15.1,24.9,0.0
    c 8.8,1.3,13.3,2.9,13.3,4.8
    c 0.0,1.2,-2.3,2.4,-6.8,3.6
    c -3.7,12.5,-9.3,28.8,-16.6,48.9
    H 92.1
    Z"
  />
</svg>