<svg viewBox="0.0,0.0 131.3,127.7" xmlns="http://www.w3.org/2000/svg">
  <path d="
    M 90.8,91.6
    c -3.3,8.7,-7.3,15.7,-12.2,21.2
    c -8.6,9.4,-19.2,14.1,-31.9,14.1
    c -12.6,0.0,-23.3,-4.8,-31.9,-14.3
    C 4.9,101.7,0.0,87.5,0.0,69.9
    c 0.0,-17.1,4.9,-31.2,14.6,-42.1
    c 8.7,-9.5,19.4,-14.3,32.1,-14.3
    c 12.6,0.0,23.4,4.6,32.3,13.8
    c 7.4,8.3,12.4,14.5,15.0,18.8
    c 3.0,-13.8,5.6,-29.2,8.0,-46.1
    c 9.4,1.3,14.1,2.9,14.1,4.8
    c 0.0,1.2,-2.1,2.4,-6.3,3.6
    c -2.6,17.7,-5.5,33.5,-8.7,47.5
    c 4.4,6.4,8.7,13.2,12.9,20.4
    c 11.5,20.3,17.3,34.7,17.3,43.3
    c 0.0,5.4,-2.0,8.1,-5.9,8.1
    c -2.8,0.0,-5.4,-3.9,-7.8,-11.8
    c -1.3,-5.4,-4.1,-13.3,-8.6,-23.8
    c -3.6,-7.9,-7.3,-15.5,-11.4,-22.8
    C 95.2,78.1,92.9,85.6,90.8,91.6
    Z

    M 73.4,31.7
    c -7.0,-8.6,-15.9,-12.9,-26.7,-12.9
    c -11.6,0.0,-20.9,5.0,-27.8,15.0
    c -6.3,9.1,-9.4,21.1,-9.4,35.8
    c 0.0,13.0,2.4,24.0,7.3,32.8
    c 6.7,12.4,16.7,18.6,30.0,18.6
    c 11.5,0.0,20.7,-5.0,27.6,-14.9
    c 2.8,-4.0,5.5,-9.5,8.1,-16.4
    c 3.0,-8.9,6.0,-19.4,8.9,-31.4
    C 87.2,50.2,81.3,41.3,73.4,31.7
    Z"
  />
</svg>