<svg viewBox="0.0,0.0 113.3,115.6" xmlns="http://www.w3.org/2000/svg">
  <path d="
    M 106.2,75.7
    c 0.1,13.9,0.8,22.3,1.8,25.3
    c 0.8,2.4,2.5,3.6,5.3,3.4
    c -0.3,5.2,-3.1,8.3,-8.3,9.4
    c -5.9,1.2,-24.0,1.8,-54.3,1.8
    c -27.1,0.0,-42.2,-0.7,-45.3,-2.0
    c -3.6,-1.5,-5.4,-5.4,-5.4,-11.9
    V 0.0
    c 10.4,0.1,15.6,1.4,15.6,3.8
    c 0.0,1.3,-2.1,2.8,-6.2,4.5
    v 92.2
    c 0.0,3.0,0.9,4.8,2.7,5.6
    c 2.4,0.8,14.8,1.2,37.1,1.2
    c 25.5,0.0,40.0,-0.6,43.7,-1.7
    c 3.0,-1.1,5.0,-3.6,6.0,-7.6
    c 1.2,-4.3,2.3,-12.1,3.4,-23.4
    L 106.2,75.7
    Z"
  />
</svg>