<svg viewBox="0.0,0.0 119.5,115.6" xmlns="http://www.w3.org/2000/svg">
  <path d="
    M 103.9,0.0
    c 10.4,0.1,15.6,1.4,15.6,3.8
    c 0.0,1.3,-2.1,2.8,-6.2,4.5
    V 101.7
    c 0.0,6.5,-1.8,10.5,-5.4,11.9
    c -3.0,1.3,-18.1,2.0,-45.3,2.0
    c -30.3,0.0,-48.4,-0.6,-54.3,-1.8
    c -5.2,-1.0,-7.9,-4.1,-8.3,-9.4
    c 2.7,0.1,4.5,-1.0,5.3,-3.4
    c 1.1,-3.0,1.7,-11.5,1.8,-25.3
    l 3.7,-1.1
    c 1.1,11.2,2.3,19.0,3.4,23.4
    c 1.0,4.0,3.0,6.5,6.0,7.6
    c 3.6,1.1,18.2,1.7,43.7,1.7
    c 22.4,0.0,34.7,-0.4,37.1,-1.2
    c 1.8,-0.7,2.7,-2.6,2.7,-5.6
    V 0.0
    Z"
  />
</svg>