<svg viewBox="0.0,0.0 74.5,123.7" xmlns="http://www.w3.org/2000/svg">
  <path d="
    M 58.5,93.0
    c -2.1,-19.1,-12.1,-33.4,-30.2,-42.9
    l 0.1,-0.1
    h -0.1
    c 9.1,-10.8,18.7,-23.9,28.6,-39.4
    H 1.6
    l -1.6,-3.7
    h 57.1
    l 6.1,-6.9
    c 7.5,6.0,11.3,10.0,11.3,11.9
    c 0.0,0.9,-0.5,1.4,-1.6,1.5
    L 67.3,14.6
    c -10.4,12.9,-20.7,24.0,-30.9,33.2
    c 20.5,12.2,30.7,27.9,30.7,47.2
    c 0.0,9.1,-2.1,16.3,-6.2,21.5
    c -4.2,4.8,-10.1,7.2,-17.7,7.2
    c 0.0,-3.0,-2.4,-5.3,-7.3,-6.9
    c -3.5,-1.1,-10.7,-2.7,-21.8,-4.7
    v -4.0
    c 11.7,1.9,21.6,2.9,29.7,2.9
    c 6.5,0.0,10.9,-2.7,13.1,-8.2
    C 58.0,100.1,58.5,96.9,58.5,93.0
    Z"
  />
</svg>