<svg viewBox="0.0,0.0 129.0,117.0" xmlns="http://www.w3.org/2000/svg">
  <path d="
    M 114.1,0.0
    c 10.0,0.3,14.9,1.5,14.9,3.6
    c 0.0,1.2,-2.0,2.7,-6.0,4.3
    v 95.0
    c 0.0,6.5,-1.9,10.6,-5.7,12.1
    c -3.0,1.3,-23.2,2.0,-60.6,2.0
    c -27.1,0.0,-43.2,-0.2,-48.1,-0.6
    c -2.9,-0.1,-5.0,-0.4,-6.1,-0.7
    c -1.7,-0.5,-2.5,-1.4,-2.5,-2.7
    c 0.0,-1.8,0.6,-3.3,1.7,-4.5
    c 1.2,-1.3,2.8,-1.9,4.8,-1.9
    c 0.1,0.0,0.5,0.0,1.0,0.1
    c 0.8,0.1,1.6,0.2,2.2,0.2
    c 14.5,1.3,32.7,1.9,54.6,1.9
    c 27.0,0.0,42.4,-0.4,46.1,-1.2
    c 2.5,-0.4,3.7,-2.3,3.7,-5.7
    L 114.1,0.0
    Z"
  />
</svg>