<svg viewBox="0.0,0.0 115.1,132.1" xmlns="http://www.w3.org/2000/svg">
  <path d="
    M 13.4,65.8
    v 8.0
    h -8.6
    v -73.8
    c 10.0,0.4,15.0,1.7,15.0,3.9
    c 0.0,1.4,-2.1,2.7,-6.4,4.1
    v 54.1
    h 86.3
    l 6.2,-7.6
    c 6.1,5.5,9.2,9.0,9.2,10.5
    c 0.0,0.6,-0.5,1.2,-1.5,1.8
    l -3.6,2.1
    c -6.2,9.2,-17.4,19.6,-33.7,31.3
    c -20.5,15.8,-45.4,26.4,-74.6,31.9
    l -1.7,-3.4
    c 25.8,-6.3,49.2,-17.7,70.2,-34.1
    c 15.8,-12.3,26.0,-21.8,30.7,-28.6
    H 13.4
    Z"
  />
</svg>