<svg viewBox="0.0,0.0 107.8,130.4" xmlns="http://www.w3.org/2000/svg">
  <path d="
    M 15.5,81.7
    c -2.0,3.8,-4.3,8.3,-7.2,13.5
    l -8.3,-3.0
    c 8.0,-13.7,16.8,-32.3,26.4,-55.7
    c 5.2,-13.7,9.4,-25.8,12.6,-36.5
    c 9.3,1.7,13.9,3.5,13.9,5.6
    c 0.0,1.4,-2.3,2.6,-7.0,3.6
    c -3.2,10.1,-6.5,19.2,-9.9,27.3
    c -6.0,14.6,-12.2,28.5,-18.6,41.5
    c 11.8,3.5,26.2,8.9,43.2,16.2
    c 31.5,13.7,47.2,24.1,47.2,31.2
    c 0.0,3.3,-1.5,5.0,-4.5,5.0
    c -1.4,0.0,-4.3,-1.9,-8.7,-5.7
    c -8.4,-7.2,-21.2,-15.3,-38.4,-24.4
    C 41.3,92.3,27.7,86.0,15.5,81.7
    Z"
  />
</svg>