<svg viewBox="0.0,0.0 46.0,129.2" xmlns="http://www.w3.org/2000/svg">
  <clipPath id="cj">
    <path d="
      M 21.7,29.0
      c -5.3,-9.1,-11.3,-17.9,-18.0,-26.3
      l 3.1,-2.7
      c 7.7,8.4,14.2,16.7,19.5,24.8
      c 13.1,21.7,19.7,42.5,19.7,62.2
      c 0.0,11.4,-1.8,21.4,-5.4,30.0
      c -3.5,8.2,-9.6,12.2,-18.5,12.0
      c -0.1,-2.9,-2.0,-5.1,-5.6,-6.6
      c -2.6,-1.1,-8.1,-2.5,-16.5,-4.2
      v -4.1
      c 8.2,1.5,15.4,2.3,21.6,2.3
      c 5.5,0.0,9.3,-2.1,11.2,-6.2
      c 3.1,-6.6,4.7,-15.2,4.7,-25.8
      c 0.0,-6.7,-1.4,-15.9,-4.3,-27.6
      C 30.0,46.9,26.1,37.6,21.7,29.0
      Z"
    />
  </clipPath>
  <g clip-path="url(#cj)">
    <rect x="0" y="0" width="46" height="0">
      <animate attributeName="height" values="0;129.2" dur="0.5s" repeatCount="1" fill="freeze"/>
    </rect>
  </g>
</svg>
