<svg viewBox="0.0,0.0 129.2,81.4" xmlns="http://www.w3.org/2000/svg">
  <clipPath id="fpj">
    <path d="
      M 109.0,71.6
      c 3.0,-1.1,5.0,-3.6,6.0,-7.6
      c 1.2,-4.3,2.3,-12.1,3.4,-23.4
      l 3.7,1.1
      c 0.1,13.9,0.8,22.3,1.8,25.3
      c 0.8,2.4,2.5,3.6,5.3,3.4
      c -0.3,5.2,-3.1,8.4,-8.3,9.5
      c -2.8,0.6,-7.8,1.1,-15.0,1.5
      v -0.1
      c -6.3,0.0,-10.8,-0.3,-13.3,-0.8
      c -22.5,-2.9,-43.9,-14.6,-64.3,-35.3
      c -8.1,-8.5,-15.6,-18.3,-22.7,-29.3
      l -5.6,-8.8
      c 9.0,-5.3,14.1,-7.1,15.3,-5.3
      c 0.7,1.1,-0.2,3.6,-2.8,7.5
      l 1.2,2.0
      c 6.3,9.8,13.5,19.2,21.5,28.1
      c 17.3,17.4,34.8,27.7,52.4,31.0
      C 91.1,71.5,98.2,71.9,109.0,71.6
      Z"
    />
  </clipPath>
  <g clip-path="url(#fpj)">
    <rect x="0" y="0" width="0" height="81.4">
      <animate attributeName="width" values="0;129.2" dur="0.5s" repeatCount="1" fill="freeze"/>
    </rect>
  </g>
</svg>
