<svg viewBox="0.0,0.0 115.2,125.6" xmlns="http://www.w3.org/2000/svg">
  <clipPath id="ht">
    <path d="
      M 99.7,11.3
      H 6.6
      l -1.5,-3.7
      h 93.6
      l 6.2,-7.6
      c 6.9,5.8,10.3,9.4,10.3,10.9
      c 0.0,0.8,-0.5,1.4,-1.5,1.8
      l -4.6,2.6
      c -6.2,21.1,-13.5,38.3,-22.0,51.3
      c -3.2,4.7,-8.3,11.3,-15.4,19.7
      c -19.8,19.6,-43.0,32.7,-69.7,39.3
      l -2.0,-3.8
      c 13.1,-4.5,24.7,-9.9,34.7,-16.2
      c 10.0,-6.2,20.2,-14.7,30.5,-25.6
      C 81.8,60.7,93.3,37.8,99.7,11.3
      Z"
    />
  </clipPath>
  <g clip-path="url(#ht)">
    <rect x="5.1" y="0" width="0" height="11.3">
      <animate attributeName="width" values="0;110.1" dur="0.2s" repeatCount="1" fill="freeze"/>
    </rect>
    <rect x="0" y="0" width="115.2" height="0">
      <animate attributeName="height" values="0;125.6" begin="0.2s" dur="0.3s" repeatCount="1" fill="freeze"/>
    </rect>
  </g>
</svg>
