<svg viewBox="0.0,0.0 116.5,125.9" xmlns="http://www.w3.org/2000/svg">
  <clipPath id="htj">
    <path d="
      M 100.4,7.9
      l 6.2,-7.9
      c 6.6,5.2,9.9,8.7,9.9,10.5
      c 0.0,0.7,-0.4,1.3,-1.2,1.8
      L 111.0,15.0
      c -1.6,47.9,-7.3,79.5,-17.0,94.9
      c -6.3,10.7,-16.0,16.0,-29.1,16.0
      c 0.0,-3.1,-2.5,-5.5,-7.4,-7.2
      c -3.0,-1.1,-9.5,-2.5,-19.6,-4.2
      v -4.1
      c 13.9,1.9,24.1,2.9,30.8,2.9
      c 7.1,0.0,12.9,-3.0,17.2,-8.9
      c 9.5,-15.2,15.0,-46.2,16.3,-92.8
      H 1.7
      L 0.0,7.9
      H 100.4
      Z"
    />
  </clipPath>
  <g clip-path="url(#htj)">
    <rect x="0" y="0" width="0" height="11.6">
      <animate attributeName="width" values="0;116.5" dur="0.2s" repeatCount="1" fill="freeze"/>
    </rect>
    <rect x="80" y="-20" width="100" height="0" transform="rotate (40 80,-20)">
      <animate attributeName="height" values="0;130" begin="0.2s" dur="0.3s" repeatCount="1" fill="freeze"/>
    </rect>
  </g>
</svg>
