<svg viewBox="0.0,0.0 114.7,123.4" xmlns="http://www.w3.org/2000/svg">
  <clipPath id="hvu">
    <path d="
      M 51.6,109.0
      V 10.9
      h -50.0
      L 0.0,7.2
      H 50.4
      l 5.8,-7.2
      c 6.4,5.2,9.7,8.5,9.7,9.9
      c 0.0,0.8,-0.5,1.5,-1.4,2.1
      l -3.4,2.4
      v 91.0
      c 18.2,-9.3,35.7,-18.8,52.6,-28.4
      l 1.0,3.7
      c -21.7,14.9,-41.4,27.3,-59.3,37.1
      c -0.4,3.7,-1.3,5.6,-2.7,5.6
      c -2.1,0.0,-4.3,-3.9,-6.7,-11.7
      C 47.9,111.0,49.7,110.1,51.6,109.0
      Z"
    />
  </clipPath>
  <g clip-path="url(#hvu)">
    <rect x="-50" y="50" width="140" height="0" transform="rotate(-50 -50,50)">
      <animate attributeName="height" values="0;180" dur="0.5s" repeatCount="1" fill="freeze"/>
    </rect>
  </g>
</svg>
