<svg viewBox="0.0,0.0 121.6,130.7" xmlns="http://www.w3.org/2000/svg">
  <clipPath id="thtaj">
    <path d="
      M 85.5,33.0
      l 6.9,-7.8
      c 7.5,5.9,11.3,9.8,11.3,11.7
      c 0.0,0.8,-0.8,1.5,-2.3,2.0
      l -5.3,1.5
      c -27.3,24.4,-49.4,45.2,-66.3,62.5
      C 25.4,107.3,23.2,111.2,23.2,114.6
      c 0.0,3.2,2.5,5.2,7.6,5.9
      c 8.0,1.2,18.7,1.8,32.3,1.8
      c 22.3,0.0,35.3,-0.9,39.0,-2.6
      c 3.4,-1.7,6.1,-11.1,8.1,-28.2
      l 4.1,1.5
      v 4.3
      c 0.0,9.3,0.5,15.3,1.6,18.0
      c 0.9,2.4,2.8,3.6,5.7,3.6
      c -0.4,5.3,-3.1,8.4,-8.1,9.4
      c -7.4,1.6,-23.9,2.4,-49.4,2.4
      c -22.8,0.0,-36.7,-1.1,-41.7,-3.3
      c -6.1,-2.7,-9.2,-7.2,-9.2,-13.5
      c 0.0,-5.3,4.2,-12.1,12.7,-20.4
      c 10.6,-10.4,30.5,-29.4,59.7,-57.0
      H 13.2
      c -1.4,2.7,-3.1,5.7,-5.1,9.0
      l -8.1,-3.3
      C 6.2,33.2,13.1,19.0,20.7,0.0
      c 9.0,2.1,13.5,4.1,13.5,5.9
      c 0.0,1.2,-2.4,2.1,-7.1,2.9
      C 24.4,15.2,20.5,23.3,15.3,33.0
      H 85.5
      Z"
    />
  </clipPath>
  <g clip-path="url(#thtaj)">
    <rect x="-20" y="5" width="120" height="0" transform="rotate(-10 -20,5)">
      <animate attributeName="height" values="0;105" dur="0.25s" repeatCount="1" fill="freeze"/>
    </rect>
    <rect x="8" y="105" width="0" height="50" transform="rotate(-10 8,105)">
      <animate attributeName="width" values="0;110" begin="0.25s" dur="0.25s" repeatCount="1" fill="freeze"/>
    </rect>
  </g>
</svg>
