<svg viewBox="0.0,0.0 96.7,122.9" xmlns="http://www.w3.org/2000/svg">
  <clipPath id="tj">
    <path d="
      M 69.2,64.5
      c -9.8,18.0,-20.8,32.7,-32.9,44.0
      C 26.1,118.1,16.9,122.9,8.7,122.9
      c -4.9,0.0,-7.8,-2.5,-8.7,-7.5
      c 3.8,-0.3,5.7,-4.3,5.7,-12.0
      c 0.0,-4.7,-0.5,-12.0,-1.5,-21.9
      l 4.0,-1.9
      c 2.8,20.5,5.9,30.7,9.3,30.7
      c 3.7,0.0,9.5,-4.1,17.5,-12.5
      c 9.9,-10.4,18.8,-23.1,26.8,-38.0
      c 3.2,-6.8,5.1,-10.9,5.6,-12.4
      c 5.5,-13.3,10.2,-29.1,14.2,-47.4
      c 10.2,2.5,15.1,4.9,14.6,7.0
      c -0.2,1.2,-2.7,2.3,-7.3,3.3
      c -3.9,14.8,-8.0,27.5,-12.5,38.2
      C 74.7,52.8,72.3,58.1,69.2,64.5
      Z"
    />
  </clipPath>
  <g clip-path="url(#tj)">
    <rect x="17.5" y="0" width="80" height="0">
      <animate attributeName="height" values="0;123" dur="0.35s" repeatCount="1" fill="freeze"/>
    </rect>
    <rect x="0" y="123" width="18" height="0">
      <animate attributeName="height" values="0;44" begin="0.35s" dur="0.15s" repeatCount="1" fill="freeze"/>
      <animate attributeName="y" values="123;79" begin="0.35s" dur="0.15s" repeatCount="1" fill="freeze"/>
    </rect>
  </g>
</svg>
