<svg viewBox="0.0,0.0 123.0,116.9" xmlns="http://www.w3.org/2000/svg">
  <clipPath id="va">
    <path d="
      M 8.9,7.9
      v 93.9
      c 0.0,3.4,1.2,5.3,3.7,5.7
      c 3.7,0.8,19.1,1.2,46.1,1.2
      c 21.8,0.0,40.0,-0.6,54.6,-1.9
      c 0.6,0.0,1.4,-0.1,2.2,-0.2
      c 0.5,0.0,0.8,-0.1,1.0,-0.1
      c 2.0,0.0,3.5,0.6,4.8,1.9
      c 1.1,1.2,1.7,2.7,1.7,4.5
      c 0.0,1.3,-0.8,2.2,-2.5,2.7
      c -1.1,0.3,-3.1,0.6,-6.1,0.7
      c -4.9,0.4,-21.0,0.6,-48.1,0.6
      c -37.4,0.0,-57.5,-0.7,-60.6,-2.0
      c -3.8,-1.5,-5.7,-5.5,-5.7,-12.1
      V 0.0
      c 10.0,0.3,15.0,1.5,15.0,3.6
      C 14.9,4.8,12.9,6.3,8.9,7.9
      Z"
    />
  </clipPath>
  <g clip-path="url(#va)">
    <rect x="-70" y="60" width="140" height="0" transform="rotate(-45 -70,60)">
      <animate attributeName="height" values="0;180" begin="0s" dur="0.5s" repeatCount="1" fill="freeze"/>
    </rect>
  </g>
</svg>
