<svg viewBox="0.0,0.0 115.1,132.1" xmlns="http://www.w3.org/2000/svg">
  <clipPath id="vht">
    <path d="
      M 13.4,65.8
      v 8.0
      h -8.6
      v -73.8
      c 10.0,0.4,15.0,1.7,15.0,3.9
      c 0.0,1.4,-2.1,2.7,-6.4,4.1
      v 54.1
      h 86.3
      l 6.2,-7.6
      c 6.1,5.5,9.2,9.0,9.2,10.5
      c 0.0,0.6,-0.5,1.2,-1.5,1.8
      l -3.6,2.1
      c -6.2,9.2,-17.4,19.6,-33.7,31.3
      c -20.5,15.8,-45.4,26.4,-74.6,31.9
      l -1.7,-3.4
      c 25.8,-6.3,49.2,-17.7,70.2,-34.1
      c 15.8,-12.3,26.0,-21.8,30.7,-28.6
      H 13.4
      Z"
    />
  </clipPath>
  <g clip-path="url(#vht)">
    <rect x="-40" y="30" width="80" height="0" transform="rotate(-40 -40,30)">
      <animate attributeName="height" values="0;100" begin="0s" dur="0.15s" repeatCount="1" fill="freeze"/>
    </rect>
    <rect x="70" y="62.1" width="0" height="3.9">
      <animate attributeName="width" values="0;40" begin="0.15s" dur="0.15s" repeatCount="1" fill="freeze"/>
    </rect>
    <rect x="115.1" y="54.5" width="0" height="77.6">
      <animate attributeName="width" values="0;115.2" begin="0.3s" dur="0.2s" repeatCount="1" fill="freeze"/>
      <animate attributeName="x" values="115.1;0" begin="0.3s" dur="0.2s" repeatCount="1" fill="freeze"/>
    </rect>
  </g>
</svg>
