<svg viewBox="0.0,0.0 41.9,124.0" xmlns="http://www.w3.org/2000/svg">
  <clipPath id="vj">
    <path d="
      M 0.0,110.3
      c 8.3,1.0,15.0,1.5,20.4,1.5
      c 3.5,0.0,5.3,-1.6,5.3,-4.9
      V 0.0
      c 10.8,0.4,16.2,1.8,16.2,4.2
      c 0.0,1.4,-2.3,3.0,-6.9,4.8
      V 110.7
      c 0.0,5.5,-1.3,9.0,-4.0,10.6
      c -2.7,1.7,-6.8,2.6,-12.2,2.7
      c 0.0,-3.3,-1.6,-5.5,-4.8,-6.7
      c -2.1,-0.9,-6.8,-1.9,-13.9,-3.0
      V 110.3
      Z"
    />
 j</clipPath>
  <g clip-path="url(#vj)">
    <rect x="45.7" y="-20" width="100" height="0" transform="rotate(45 45.7,-20)">
      <animate attributeName="height" values="0;140" begin="0s" dur="0.5s" repeatCount="1" fill="freeze"/>
    </rect>
  </g>
</svg>
