<svg viewBox="0.0,0.0 115.4,113.9" xmlns="http://www.w3.org/2000/svg">
  <clipPath id="htaj">
    <path d="
      M 72.8,7.8
      l 6.9,-7.8
      c 7.5,5.9,11.2,9.8,11.2,11.7
      c 0.0,0.8,-0.7,1.5,-2.2,2.0
      L 83.4,15.1
      c -27.7,24.3,-50.0,46.4,-66.8,66.1
      c -4.4,5.3,-6.6,9.9,-6.6,13.8
      c 0.0,4.9,2.5,7.8,7.6,8.5
      c 8.0,1.2,20.2,1.8,36.5,1.8
      c 24.2,0.0,38.2,-0.9,41.9,-2.6
      c 3.5,-1.6,6.2,-11.0,8.1,-28.1
      l 4.0,1.5
      v 4.4
      c 0.0,9.3,0.5,15.3,1.6,17.9
      c 0.9,2.4,2.8,3.7,5.7,3.7
      c -0.4,5.2,-3.1,8.3,-8.1,9.4
      c -7.4,1.6,-24.8,2.4,-52.2,2.4
      c -25.6,0.0,-40.9,-1.1,-45.9,-3.3
      c -6.1,-2.7,-9.2,-7.2,-9.2,-13.5
      c 0.0,-7.0,4.2,-15.4,12.7,-25.0
      c 14.0,-16.0,34.1,-36.2,60.2,-60.6
      H 5.4
      l -1.5,-3.7
      H 72.8
      Z"
    />
  </clipPath>
  <g clip-path="url(#htaj)">
    <rect x="0" y="0" width="0" height="11.5">
      <animate attributeName="width" values="0;115.4" dur="0.15s" repeatCount="1" fill="freeze"/>
    </rect>
    <rect x="80" y="0" width="30" height="0" transform="rotate(45 80,0)">
      <animate attributeName="height" values="0;110" dur="0.2s" begin="0.13s" repeatCount="1" fill="freeze"/>
    </rect>
    <rect x="0" y="70" width="0" height="50">
      <animate attributeName="width" values="0;116" dur="0.18s" begin="0.32" repeatCount="1" fill="freeze"/>
    </rect>
  </g>
</svg>
