<svg viewBox="0.0,0.0 119.3,120.5" xmlns="http://www.w3.org/2000/svg">
  <clipPath id="hthtj">
    <path d="
      M 58.4,48.0
      h 45.7
      l 6.0,-7.3
      c 6.1,5.2,9.2,8.5,9.2,9.9
      c 0.0,0.8,-0.4,1.5,-1.3,1.9
      l -3.9,2.3
      c -0.8,31.2,-4.6,50.7,-11.6,58.5
      c -4.2,4.8,-10.1,7.2,-17.7,7.2
      c 0.0,-3.0,-2.4,-5.3,-7.3,-6.9
      c -3.5,-1.1,-10.7,-2.7,-21.8,-4.7
      v -4.0
      c 11.7,1.9,21.6,2.9,29.7,2.9
      c 7.7,0.0,12.5,-3.3,14.4,-9.9
      c 3.4,-11.8,5.3,-27.1,5.7,-46.1
      h -49.6
      l -7.3,11.6
      l -8.3,-1.8
      c 13.4,-21.0,23.7,-37.9,30.8,-50.5
      H 1.3
      L 0.0,7.2
      h 69.9
      l 5.8,-7.2
      c 6.3,5.2,9.5,8.6,9.5,10.2
      c 0.0,0.7,-0.6,1.3,-1.8,1.9
      l -4.2,2.1
      C 72.8,25.5,65.9,36.7,58.4,48.0
      Z"
    />
  </clipPath>
  <g clip-path="url(#hthtj)">
    <rect x="-20" y="-10" width="120" height="0" transform="rotate (-30 -20,-10)">
      <animate attributeName="height" values="0;135" dur="0.35s" repeatCount="1" fill="freeze"/>
    </rect>
    <rect x="65" y="50" width="80" height="0" transform="rotate (30 80,60)">
      <animate attributeName="height" values="0;80" begin="0.325" dur="0.175s" repeatCount="1" fill="freeze"/>
    </rect>
  </g>
</svg>
