<svg viewBox="0.0,0.0 60.0,116.2" xmlns="http://www.w3.org/2000/svg">
  <clipPath id="td">
    <path d="
      M 54.7,116.2
      c -2.2,0.0,-4.0,-2.2,-5.4,-6.5
      c -10.3,-19.5,-26.7,-38.2,-49.3,-56.0
      c 19.4,-15.6,34.8,-33.5,46.1,-53.7
      c 9.3,3.4,13.9,6.2,13.9,8.2
      c 0.0,1.6,-2.4,2.4,-7.2,2.6
      c -11.2,13.8,-27.1,27.9,-47.6,42.3
      c 21.8,13.1,38.1,27.2,48.8,42.4
      c 3.6,5.4,5.4,10.3,5.4,14.7
      C 59.5,114.2,57.9,116.2,54.7,116.2
      Z"
    />
  </clipPath>
  <g clip-path="url(#td)">
    <rect x="0" y="0" width="60" height="0">
      <animate attributeName="height" values="0;116.2" dur="0.5s" repeatCount="1" fill="freeze"/>
    </rect>
  </g>
</svg>
