<svg viewBox="0.0,0.0 92.4,134.5" xmlns="http://www.w3.org/2000/svg">
  <clipPath id="tht">
    <path d="
      M 14.5,65.4
      h 61.7
      l 6.0,-8.0
      c 6.8,5.9,10.2,9.7,10.2,11.4
      c 0.0,0.6,-0.4,1.2,-1.3,1.6
      l -4.6,1.9
      c -9.0,14.4,-19.2,26.1,-30.5,35.2
      c -14.0,11.1,-31.9,20.1,-53.7,27.0
      l -2.3,-3.4
      C 30.8,118.6,54.2,101.8,70.2,80.6
      c 2.7,-3.6,5.3,-7.4,7.8,-11.4
      H 12.8
      c -1.4,3.0,-2.9,5.9,-4.3,8.9
      l -8.3,-2.9
      c 5.4,-10.9,11.2,-23.8,17.4,-38.7
      c 5.2,-13.7,9.4,-25.8,12.6,-36.5
      c 9.3,1.7,13.9,3.5,13.9,5.6
      c 0.0,1.4,-2.3,2.6,-7.0,3.6
      c -3.2,10.1,-6.5,19.2,-9.9,27.3
      C 23.0,46.5,18.8,56.1,14.5,65.4
      Z"
    />
  </clipPath>
  <g clip-path="url(#tht)">
    <rect x="-35" y="5" width="110" height="0" transform="rotate(-15 -35,5)">
      <animate attributeName="height" values="0;140" dur="0.5s" repeatCount="1" fill="freeze"/>
    </rect>
  </g>
</svg>
