<svg viewBox="0.0,0.0 130.1,123.4" xmlns="http://www.w3.org/2000/svg">
  <clipPath id="hpj">
    <path d="
      M 110.7,106.8
      c 1.3,1.0,2.3,1.5,3.0,1.5
      c 2.8,0.0,5.3,-10.1,7.4,-30.2
      l 4.0,1.9
      c -0.7,9.1,-1.0,16.2,-1.0,21.2
      c 0.0,8.9,2.0,13.8,6.0,14.7
      c -1.1,5.0,-3.7,7.5,-7.8,7.5
      c -6.1,0.0,-13.5,-4.2,-22.3,-12.7
      c -22.7,-21.9,-34.1,-54.8,-34.1,-98.7
      v -2.1
      H 1.7
      l -1.7,-3.7
      h 64.6
      l 5.7,-6.2
      c 6.2,4.4,9.3,7.3,9.3,8.9
      c 0.0,0.6,-0.4,1.1,-1.2,1.6
      l -3.6,2.3
      C 75.0,56.9,86.9,88.3,110.7,106.8
      Z"
    />
  </clipPath>
  <g clip-path="url(#hpj)">
    <rect x="0" y="0" width="0" height="9.9">
      <animate attributeName="width" values="0;79.6" dur="0.3s" repeatCount="1" fill="freeze"/>
    </rect>
    <rect x="64.6" y="9.8" width="49.1" height="0">
      <animate attributeName="height" values="0;113.5" begin="0.3" dur="0.4s" repeatCount="1" fill="freeze"/>
    </rect>
    <rect x="113.5" y="0" width="17" height="0">
      <animate attributeName="height" values="0;45.3" begin="0.3" dur="0.4s" repeatCount="1" fill="freeze"/>
      <animate attributeName="y" values="123.4;78.1" begin="0.7" dur="0.3s" repeatCount="1" fill="freeze"/>
    </rect>
  </g>
</svg>
