<svg viewBox="0.0,0.0 133.6,49.7" xmlns="http://www.w3.org/2000/svg">
  <clipPath id="ufp">
    <path d="
      M 92.1,37.9
      c 10.5,0.0,24.3,-0.6,41.5,-1.9
      c -2.7,3.3,-4.6,6.8,-5.7,10.6
      h -26.4
      c -27.1,0.0,-45.5,-2.9,-55.3,-8.7
      c -10.6,-6.2,-17.2,-15.7,-19.7,-28.6
      c -3.4,12.5,-8.7,23.6,-15.7,33.3
      c 0.3,1.7,0.4,3.0,0.4,4.0
      c 0.0,2.1,-0.5,3.1,-1.6,3.1
      c -2.3,0.0,-5.5,-3.9,-9.6,-11.6
      c 11.4,-10.0,19.5,-22.7,24.5,-38.1
      h 4.0
      c 1.8,10.0,6.6,19.0,14.6,27.0
      C 52.0,34.3,68.3,37.9,92.1,37.9
      Z"
    />
  </clipPath>
  <g clip-path="url(#ufp)">
    <rect x="0" y="0" width="0" height="49.7">
      <animate attributeName="width" values="0;133.6" begin="0s" dur="1s" repeatCount="1" fill="freeze"/>
    </rect>
  </g>
</svg>
