<svg viewBox="0.0,0.0 105.8,130.1" xmlns="http://www.w3.org/2000/svg">
  <clipPath id="vhtj">
    <path d="
      M 90.7,57.0
      l 5.8,-7.2
      c 6.2,5.0,9.3,8.2,9.3,9.7
      c 0.0,0.7,-0.4,1.3,-1.3,1.8
      l -4.0,2.3
      c -0.6,22.4,-3.3,39.9,-8.0,52.7
      c -2.3,5.3,-5.4,9.0,-9.2,11.1
      c -3.3,1.8,-7.5,2.7,-12.7,2.7
      c -0.1,-3.0,-2.3,-5.4,-6.4,-7.0
      c -3.3,-1.3,-9.6,-2.9,-18.9,-4.8
      v -4.2
      c 11.4,2.2,21.1,3.3,29.1,3.3
      c 5.6,0.0,9.5,-3.4,11.6,-10.2
      c 3.6,-11.5,5.6,-27.0,6.0,-46.4
      H 8.7
      v 13.3
      h -8.7
      v -74.1
      c 9.9,0.3,14.9,1.5,14.9,3.7
      c 0.0,1.3,-2.1,2.7,-6.2,4.2
      v 49.1
      H 90.7
      Z"
    />
  </clipPath>
  <g clip-path="url(#vhtj)">
    <rect x="-40" y="30" width="80" height="0" transform="rotate(-40 -40,30)">
      <animate attributeName="height" values="0;100" begin="0s" dur="0.4s" repeatCount="1" fill="freeze"/>
    </rect>
    <rect x="75" y="57" width="0" height="3.8">
      <animate attributeName="width" values="0;25" begin="0.4s" dur="0.2s" repeatCount="1" fill="freeze"/>
    </rect>
    <rect x="115.1" y="40" width="0" height="80.3" transform="rotate(-20 115.1,49.8)">
      <animate attributeName="width" values="0;100" begin="0.6s" dur="0.4s" repeatCount="1" fill="freeze"/>
      <animate attributeName="x" values="115.1;15.1" begin="0.6s" dur="0.4s" repeatCount="1" fill="freeze"/>
    </rect>
  </g>
</svg>
