<svg viewBox="0.0,0.0 57.3,118.1" xmlns="http://www.w3.org/2000/svg">
  <clipPath id="du">
    <path d="
      M 57.3,2.4
      l -33.6,70.2
      c -1.3,2.9,-2.0,5.9,-2.0,9.0
      c 0.0,2.0,0.4,5.1,1.3,9.4
      c 1.2,6.3,1.8,11.9,1.8,16.9
      c 0.0,6.8,-2.4,10.2,-7.3,10.2
      c -3.4,0.0,-5.1,-1.7,-5.1,-5.1
      c 0.0,-0.2,0.4,-3.9,1.2,-11.1
      c 0.4,-2.7,0.6,-5.7,0.6,-9.0
      c 0.0,-6.4,-1.7,-10.6,-5.0,-12.7
      c -2.1,-1.3,-5.1,-2.1,-9.2,-2.5
      v -4.0
      C 3.0,74.0,4.9,74.1,6.0,74.1
      c 4.0,0.0,7.1,-1.7,9.3,-5.0
      c 8.9,-13.3,21.8,-36.3,38.7,-69.1
      L 57.3,2.4
      Z"
    />
  </clipPath>
  <g clip-path="url(#du)">
    <rect x="0" y="118.1" width="57.3" height="0">
      <animate attributeName="y" values="118.1;0" dur="1s" repeatCount="1" fill="freeze"/>
      <animate attributeName="height" values="0;118.1" dur="1s" repeatCount="1" fill="freeze"/>
    </rect>
  </g>
</svg>
