<svg viewBox="0.0,0.0 76.1,126.1" xmlns="http://www.w3.org/2000/svg">
  <clipPath id="pj">
    <path d="
      M 39.2,100.8
      c 9.1,8.5,15.6,12.7,19.5,12.7
      c 3.4,0.0,6.5,-10.3,9.3,-30.8
      l 4.0,2.0
      c -1.0,9.8,-1.5,17.1,-1.5,21.9
      c 0.0,7.7,1.9,11.7,5.6,12.0
      c -0.9,5.0,-3.8,7.5,-8.7,7.5
      c -8.4,0.0,-18.2,-4.7,-29.5,-14.2
      C 20.6,97.2,9.0,75.7,3.1,47.4
      c -2.1,-11.6,-3.1,-23.9,-3.1,-36.9
      v -10.5
      c 10.5,0.4,15.7,1.7,15.7,3.9
      c 0.0,1.3,-2.1,2.9,-6.4,4.8
      v 2.4
      c 0.0,11.7,0.9,23.4,2.8,35.3
      C 17.2,70.4,26.2,88.5,39.2,100.8
      Z"
    />
  </clipPath>
  <g clip-path="url(#pj)">
    <rect x="0" y="0" width="58.7" height="0">
      <animate attributeName="height" values="0;126.1" dur="0.8s" repeatCount="1" fill="freeze"/>
    </rect>
    <rect x="58.6" y="126.1" width="18" height="0">
      <animate attributeName="height" values="0;44" begin="0.75s" dur="0.25s" repeatCount="1" fill="freeze"/>
      <animate attributeName="y" values="126.1;82.1" begin="0.75s" dur="0.25s" repeatCount="1" fill="freeze"/>
    </rect>
  </g>
</svg>
