<svg viewBox="0.0,0.0 121.1,129.9" xmlns="http://www.w3.org/2000/svg">
  <clipPath id="th">
    <path d="
      M 15.4,113.5
      h 89.0
      l 7.5,-10.6
      c 3.6,3.9,6.6,7.6,9.2,11.4
      l -1.8,3.0
      H 13.7
      c -3.3,6.7,-5.4,10.9,-6.4,12.6
      l -7.3,-2.1
      C 8.9,110.1,19.2,87.0,30.7,58.4
      c 9.6,-23.7,16.7,-43.2,21.5,-58.4
      c 8.7,1.3,13.1,2.9,13.1,4.8
      c 0.0,1.2,-2.3,2.4,-7.0,3.6
      c -4.4,13.2,-11.0,30.6,-19.8,52.2
      C 30.4,80.6,22.7,98.2,15.4,113.5
      Z"
    />
  </clipPath>
  <g clip-path="url(#th)">
    <rect x="52" y="-5" width="20" height="0" transform="rotate(27 52.2,0)">
      <animate attributeName="height" values="0;150" dur="0.5s" repeatCount="1" fill="freeze"/>
    </rect>
    <rect x="13" y="102" width="0" height="15.5">
      <animate attributeName="width" values="13;121.1" begin="0.5s" dur="0.5s" repeatCount="1" fill="freeze"/>
    </rect>
  </g>
</svg>
