<svg viewBox="0.0,0.0 129.7,91.9" xmlns="http://www.w3.org/2000/svg">
  <clipPath id="utj">
    <path d="
      M 1.8,43.5
      l -1.8,-3.7
      L 113.9,8.7
      l 5.6,-8.7
      c 6.8,4.8,10.2,8.0,10.2,9.6
      c 0.0,0.7,-0.5,1.4,-1.5,2.1
      l -4.0,2.6
      c -0.1,41.7,-2.7,65.6,-7.7,71.6
      c -3.2,4.0,-8.1,6.0,-14.7,6.0
      c -0.1,-3.3,-1.8,-5.4,-4.9,-6.4
      c -2.3,-0.8,-6.1,-1.7,-11.1,-2.6
      v -4.0
      c 7.5,0.9,13.0,1.3,16.5,1.3
      c 4.1,0.0,6.9,-1.9,8.4,-5.7
      c 3.3,-7.9,4.9,-28.5,4.9,-61.8
      L 1.8,43.5
      Z"
    />
  </clipPath>
  <g clip-path="url(#utj)">
    <rect x="-6" y="24.8" width="0" height="20" transform="rotate(-15 -6,26)">
      <animate attributeName="width" values="0;140" begin="0s" dur="0.5s" repeatCount="1" fill="freeze"/>
    </rect>
    <rect x="120" y="-8" width="70" height="0" transform="rotate(45 120,-8)">
      <animate attributeName="height" values="0;100" begin="0.5s" dur="0.5s" repeatCount="1" fill="freeze"/>
    </rect>
  </g>
</svg>
